<?xml version="1.0" encoding="UTF-8"?>
<svg xmlns="http://www.w3.org/2000/svg" viewBox="0 0 32 40" version="1.1" fill-rule="evenodd" clip-rule="evenodd" stroke-linejoin="round" stroke-miterlimit="1.41421">
  <g transform="matrix(1,0,0,1,-256,0)">
    <g transform="matrix(0.1,0,0,0.1,219,0)">
      <rect x="370" y="0" width="320" height="320" fill="none" />
      <clipPath id="a">
        <rect x="370" y="0" width="320" height="320" />
      </clipPath>
      <g clip-path="url(#a)">
        <g transform="matrix(10,0,0,10,-2510,-8025.2)">
          <rect x="288" y="802.52" width="15" height="15" fill="none" />
        </g>
        <g transform="matrix(10,0,0,10,-2510,-8025.2)">
          <path
            d="M304.001,804.527C301.804,804.527 300.001,806.328 300.001,808.525C300.001,809.802 300.622,810.932 301.563,811.666L294.778,815.213L292.02,813.528L292.02,811.521C292.02,810.961 291.569,810.51 291.02,810.51C290.464,810.516 290.019,810.965 290.019,811.51L290.019,814.088C290.019,814.437 290.201,814.762 290.499,814.943L294.003,817.079L294.003,820.514L291.022,820.514C290.452,820.514 290.001,820.965 290.001,821.514C290.001,822.062 290.452,822.513 291.022,822.513L294.003,822.513L294.003,825.012L290.417,827.721C290.167,827.91 290.019,828.206 290.019,828.519L290.019,831.402C290.019,831.951 290.47,832.403 291.019,832.403C291.568,832.403 292.02,831.951 292.02,831.402L292.02,829.021L294.602,827.065L303.484,832.371C303.799,832.559 304.193,832.559 304.509,832.371L313.392,827.065L315.98,829.021L315.98,831.41C315.977,831.462 315.977,832.036 316.977,832.488C317.525,832.488 317.976,832.036 317.976,831.488L317.973,828.519C317.975,828.207 317.831,827.911 317.583,827.721L313.997,825.012L313.997,822.513L316.978,822.513C317.548,822.513 317.999,822.062 317.999,821.514C317.999,820.965 317.548,820.514 317,820.514L313.997,820.514L313.997,817.079L317.501,814.935C317.794,814.754 317.973,814.433 317.973,814.088L317.973,811.521C317.974,810.961 317.522,810.51 316.974,810.51C316.416,810.52 315.974,810.975 315.98,811.521L315.98,813.528L313.193,815.23L306.433,811.67C307.377,810.936 307.999,809.804 307.999,808.525C307.999,806.328 306.198,804.527 304.001,804.527ZM304.001,806.526C305.116,806.526 306,807.407 306,808.525C306,809.643 305.116,810.524 304.001,810.524C302.886,810.524 302,809.643 302,808.525C302,807.407 302.886,806.526 304.001,806.526Z"
            fill="#00ff00" fill-rule="nonzero"
          />
        </g>
      </g>
    </g>
  </g>
</svg>
