<svg xmlns="http://www.w3.org/2000/svg" viewBox="0 0 111.34 111.34"><defs><style>.cls-1{fill:#fff;}.cls-2{fill:#161515;}.cls-3{fill:#ffb18f;}.cls-4{fill:#db826a;}.cls-5{fill:#90ced6;}.cls-6{fill:#353535;}.cls-7{fill:#7c4639;}.cls-8{fill:#444;}.cls-9{fill:#474747;}.cls-10{fill:#232323;}.cls-11{fill:#2b2b2b;}.cls-12{fill:#aaa;}.cls-13{fill:#8c8c8c;}.cls-14{fill:#cecece;}</style></defs><g id="Calque_2" data-name="Calque 2"><g id="Layer_9" data-name="Layer 9"><circle class="cls-1" cx="55.67" cy="55.67" r="55.67"/><path class="cls-2" d="M20.72,72.25c1.2-8.64,22.64-20,37.28-18.38S86.32,65.14,89.82,72.25,88.18,105,88.18,105H26.45S18.63,87.23,20.72,72.25Z"/><path class="cls-2" d="M32.91,53.54s-1.75-3.18,2.3-8.1,23.53-9.3,33.6-1.86,11.33,7.6,10.72,10S63.77,66,62.68,70.45s-6.24,12-6.59,12-4.58-8.75-8-13.35S32.91,53.54,32.91,53.54Z"/><path class="cls-3" d="M40.24,41.72c-.22,3,2.74,13.13,5.91,17.51S54,66.34,56.81,66.56s7.14-3,10.1-8.83S72.2,41.17,72.2,41.17Z"/><path class="cls-4" d="M72,42.2a6.05,6.05,0,0,0-1-1l-30.78.53C40.07,44,41.78,50.52,44,55.41c3.5-1.16,7.06-2.41,9.14-3.34s.78-2.8,2.58-3.13,1.47,3,3,3.39c1.09.32,5.92,2.13,9.11,3.34A97.67,97.67,0,0,0,72,42.2Z"/><path class="cls-5" d="M33.25,52.39s5.46-6.24,21.27-6.13S78.09,52.7,78.09,52.7s-13.93-5.29-24.61-4.91C44.39,48.12,33.25,52.39,33.25,52.39Z"/><path class="cls-6" d="M31.05,53.43c-.38-.11,6.78-24,16.24-30.57,5.42-3.79,15.5-3.69,20.42.47C74.17,28.78,81.28,53.21,81,54s-8.48-6.36-25.22-6.79C38.67,46.75,32.25,53.76,31.05,53.43Z"/><path class="cls-6" d="M31.05,53.43s.81-1.63,1.71-1.26C39.08,54.8,52.89,67.6,55,74.54c2.74,9,1.55,14.24,1.55,14.24s-4.27-11.6-10.62-19.7C40.87,62.62,31.05,53.43,31.05,53.43Z"/><path class="cls-6" d="M81,54s-1.16-2.25-1.86-1.87c-5.9,3.2-19.86,15.56-22,22.48-2.74,9-.58,14.19-.58,14.19S59.74,77.6,66.09,69.5C71.16,63,81,54,81,54Z"/><path class="cls-4" d="M53.49,54.54a11.21,11.21,0,0,1,2.13-1c.51-.12,2.63,1.26,2.35,1.42S53.27,54.93,53.49,54.54Z"/><path class="cls-7" d="M51.81,59.65c-.12-.3,2-.93,4.36-1s3.88.18,3.5.38-2.09,0-3.46.13S52.15,60.5,51.81,59.65Z"/><path class="cls-4" d="M51.51,58.49c.5.29-.92,1.1-.33,1.81.74.87,1.54.38,1.54.6s-1.12.73-2.08-.6C50.06,59.5,50.86,58.11,51.51,58.49Z"/><path class="cls-8" d="M57.1,22.37c-5.92,0-11.05,19.3-12.28,25.66a50.18,50.18,0,0,1,10.92-.84A55.27,55.27,0,0,1,67.4,48.71C66.37,41.94,65,22.37,57.1,22.37Z"/><path class="cls-5" d="M56.09,87.6a34.6,34.6,0,0,0-8.85-19.5,47.06,47.06,0,0,0-9.9-8.51,124.87,124.87,0,0,1,8.59,9.49C51.06,75.62,54.83,84.45,56.09,87.6Z"/><path class="cls-6" d="M24.74,65.74C17.33,71.59,8.61,93.93,7.3,101.15s23.34,9.81,27.82,7.4S32.58,76,30,72.47,26.27,64.54,24.74,65.74Z"/><path class="cls-9" d="M66.09,69.5A111.29,111.29,0,0,1,74,60.8a51.18,51.18,0,0,0-8.08,7.3,34.59,34.59,0,0,0-8.79,19C58.24,83.66,61.24,75.68,66.09,69.5Z"/><path class="cls-10" d="M26.89,78.71s-2.74,7.77-4.49,9.41-4.93.44-6.9,1.87-2.29,5.69-2.29,5.69,4.39-3.29,8.7-1.65A7.31,7.31,0,0,0,29.4,92.5Z"/><path class="cls-11" d="M27.33,96s-6.25-1.62-8.82.68a5.05,5.05,0,0,0-1.77,3.62,9.24,9.24,0,0,1,3.41-2.43c2.84-1,9.19,2.94,6.63-.31Z"/><path class="cls-6" d="M84.68,65.74c7.41,5.85,16.13,28.19,17.44,35.41S78.78,111,74.3,108.55,76.84,76,79.47,72.47,83.15,64.54,84.68,65.74Z"/><path class="cls-10" d="M82.53,78.71s2.74,7.77,4.49,9.41,4.92.44,6.89,1.87,2.3,5.69,2.3,5.69S91.82,92.39,87.5,94A7.32,7.32,0,0,1,80,92.5Z"/><path class="cls-11" d="M82.09,96s6.25-1.62,8.81.68a5,5,0,0,1,1.78,3.62,9.24,9.24,0,0,0-3.41-2.43c-2.84-1-9.2,2.94-6.63-.31Z"/><path class="cls-11" d="M93.17,87.6s-1-2.81-3-3.58a29,29,0,0,1-4.79-2.79s1,5.09,2.12,5.47A20,20,0,0,0,93.17,87.6Z"/><rect class="cls-12" x="26.23" y="73.68" width="61.73" height="35.79"/><rect class="cls-13" x="26.23" y="109.43" width="61.73" height="1.76"/><rect class="cls-14" x="37.31" y="108.95" width="6.57" height="0.61"/><rect class="cls-14" x="70.32" y="108.95" width="6.57" height="0.61"/><rect class="cls-14" x="26.23" y="73.76" width="61.73" height="0.83"/><path class="cls-11" d="M16.25,87.6s1-2.81,3-3.58A29,29,0,0,0,24,81.23s-1,5.09-2.13,5.47A20,20,0,0,1,16.25,87.6Z"/><polygon class="cls-9" points="55.9 86.76 53.24 86.76 53.24 89.3 54.02 89.3 54.02 87.47 55.9 87.47 55.9 86.76"/><polygon class="cls-9" points="58.29 86.76 60.95 86.76 60.95 89.3 60.17 89.3 60.17 87.47 58.29 87.47 58.29 86.76"/><polygon class="cls-9" points="58.29 94 60.95 94 60.95 91.46 60.17 91.46 60.17 93.3 58.29 93.3 58.29 94"/><polygon class="cls-9" points="55.9 94 53.24 94 53.24 91.46 54.02 91.46 54.02 93.3 55.9 93.3 55.9 94"/></g></g></svg>