<svg xmlns="http://www.w3.org/2000/svg" xmlns:xlink="http://www.w3.org/1999/xlink" viewBox="0 0 2565.75 2920.8"><defs><style>.cls-1{fill:#3d3144;}.cls-2{fill:#61ed46;}.cls-3{opacity:0.3;}.cls-17,.cls-4{fill:#000072;}.cls-5{fill:#4d5a6a;}.cls-6{opacity:0.55;}.cls-16,.cls-7{fill:#fff;}.cls-8{opacity:0.4;}.cls-9{fill:#fdbd91;}.cls-10{fill:#ac3d50;}.cls-11{opacity:0.2;}.cls-12{fill:#fefefe;}.cls-13{isolation:isolate;opacity:0.5;fill:url(#Dégradé_sans_nom_2);}.cls-14{fill:#c6d3e3;}.cls-15{opacity:0.75;}.cls-16,.cls-17{fill-rule:evenodd;}</style><linearGradient id="Dégradé_sans_nom_2" x1="1422.97" y1="7525.67" x2="1413.7" y2="6191.09" gradientTransform="matrix(1, 0, 0, -1, 0, 8906)" gradientUnits="userSpaceOnUse"><stop offset="0" stop-color="#40e6ff"/><stop offset="1" stop-color="#40e6ff"/></linearGradient></defs><g id="Calque_2" data-name="Calque 2"><g id="Layer_1" data-name="Layer 1"><circle class="cls-1" cx="1412.1" cy="1153.65" r="1153.65"/><path class="cls-2" d="M2301.35,678.78h-222.1a15.5,15.5,0,0,1,0-31h222.1a15.5,15.5,0,1,1,0,31Z"/><path class="cls-2" d="M1864.9,678.78H955.53a15.5,15.5,0,1,1,0-31H1864.9a15.5,15.5,0,1,1,0,31Z"/><path class="cls-2" d="M812.07,678.78H560.7a15.5,15.5,0,0,1,0-31H812.07a15.5,15.5,0,0,1,0,31Z"/><path class="cls-2" d="M2301.35,807.91H2110.24a15.5,15.5,0,0,1,0-31h191.11a15.5,15.5,0,0,1,0,31Z"/><path class="cls-2" d="M1993.17,807.91H851.12a15.5,15.5,0,1,1,0-31H1993.17a15.5,15.5,0,0,1,0,31Z"/><path class="cls-2" d="M692.62,807.91H560.7a15.5,15.5,0,0,1,0-31H692.62a15.5,15.5,0,0,1,0,31Z"/><path class="cls-2" d="M2301.35,937H560.7a15.5,15.5,0,0,1,0-31H2301.35a15.5,15.5,0,0,1,0,31Z"/><path class="cls-2" d="M2301.35,1066.16H829.29a15.5,15.5,0,0,1,0-31H2301.35a15.5,15.5,0,1,1,0,31Z"/><path class="cls-2" d="M692.62,1066.16H560.7a15.5,15.5,0,0,1,0-31H692.62a15.5,15.5,0,0,1,0,31Z"/><path class="cls-2" d="M2301.35,1195.29h-111a15.5,15.5,0,0,1,0-31h111a15.5,15.5,0,1,1,0,31Z"/><path class="cls-2" d="M2079.25,1195.29H560.7a15.5,15.5,0,0,1,0-31H2079.25a15.5,15.5,0,1,1,0,31Z"/><path class="cls-2" d="M2301.35,1324.42H560.7a15.5,15.5,0,0,1,0-31H2301.35a15.5,15.5,0,1,1,0,31Z"/><path class="cls-2" d="M2301.35,1453.55H2176a15.5,15.5,0,0,1,0-31h125.33a15.5,15.5,0,1,1,0,31Z"/><path class="cls-2" d="M2044.47,1453.55H898.16a15.5,15.5,0,0,1,0-31H2044.47a15.5,15.5,0,0,1,0,31Z"/><path class="cls-2" d="M708.77,1453.55H560.7a15.5,15.5,0,0,1,0-31H708.77a15.5,15.5,0,0,1,0,31Z"/><path class="cls-2" d="M2301.35,1582.68H2021.74a15.5,15.5,0,0,1,0-31h279.61a15.5,15.5,0,1,1,0,31Z"/><path class="cls-2" d="M1803.78,1582.68H560.7a15.5,15.5,0,0,1,0-31H1803.78a15.5,15.5,0,0,1,0,31Z"/><g class="cls-3"><path class="cls-4" d="M318.06,2845.65c367.34,94.87,1820.64,94.87,2188,0,34-8.78,25.69-48.14-10.1-48.14H328.16C292.37,2797.5,284.08,2836.87,318.06,2845.65Z"/></g><path class="cls-4" d="M420.89,2792.26c41.3-8.07,82.6-10.21,123.9-11.09,41.29-1.13,82.59-.53,123.89.08s82.6.6,123.89.52h1424.8c20.64,0,41.3-.71,61.94-1,41.3-.19,82.6.28,123.9,11.54a5.44,5.44,0,0,1,0,10.49c-41.3,11.25-82.6,11.73-123.9,11.54-20.64-.33-41.3-1.05-61.94-1l-61.95,0H792.57q-61.94-.11-123.89.52c-41.3.62-82.6,1.22-123.89.09-41.3-.88-82.6-3-123.9-11.09a5.34,5.34,0,0,1,0-10.49Z"/><path class="cls-5" d="M1922.89,2685.52l6.52-.78c182-21.63,306.51-194.24,269.68-373.74l-68.37-333.16a326.85,326.85,0,0,0-320.19-261.16h-784.3A326.85,326.85,0,0,0,706,1977.84L637.67,2311c-36.83,179.5,87.72,352.11,269.68,373.74l6.52.78Z"/><path class="cls-4" d="M1923,2688H913.87l-6.81-.79A315.52,315.52,0,0,1,635.22,2310.5l68.36-333.16c31.3-152.49,167-263.16,322.65-263.16h784.3c155.66,0,291.35,110.67,322.64,263.16l68.37,333.16a315.53,315.53,0,0,1-271.83,376.73Zm-896.8-968.84c-153.31,0-286.94,109-317.75,259.16l-68.36,333.17a310.5,310.5,0,0,0,267.51,370.75l6.52.78,1008.58,0,6.38-.76a310.5,310.5,0,0,0,267.51-370.75l-68.36-333.17c-30.81-150.17-164.44-259.16-317.74-259.16Z"/><g class="cls-3"><path class="cls-4" d="M1929.42,2684.77l-6.51.76h-1009l-6.51-.76c-116.42-13.83-209.31-89.53-251.56-189.19a311.51,311.51,0,0,0,172.06,77.76l6.51.75h1009l6.5-.75c182-21.64,306.54-194.24,269.67-373.73l-68.32-333.16A328.74,328.74,0,0,0,2031,1802.3a325.48,325.48,0,0,1,99.67,175.53L2199.09,2311C2235.9,2490.48,2111.35,2663.13,1929.42,2684.77Z"/></g><g class="cls-6"><path class="cls-7" d="M1971.82,1759.24a325.85,325.85,0,0,0-119.73-22.66H1067.82a326.83,326.83,0,0,0-320.2,261.15l-68.38,333.16c-28.09,136.92,37.69,269.78,151.24,334.74C692,2611.73,606.31,2463.85,637.65,2311L706,1977.83a326.88,326.88,0,0,1,320.2-261.15H1810.5A325.74,325.74,0,0,1,1971.82,1759.24Z"/></g><path class="cls-4" d="M1922.89,2701.79h-1009a15.19,15.19,0,0,1-1.91-.12l-6.53-.77a329.28,329.28,0,0,1-283.69-393.17l68.36-333.16c32.6-158.86,174-274.16,336.14-274.16h784.29c162.17,0,303.53,115.3,336.13,274.16L2215,2307.73a329.28,329.28,0,0,1-283.69,393.17l-6.52.77A15.47,15.47,0,0,1,1922.89,2701.79ZM914.83,2669.25h1007.1l5.57-.66a296.76,296.76,0,0,0,255.65-354.32l-68.37-333.16c-29.5-143.8-157.46-248.17-304.25-248.17h-784.3c-146.79,0-274.75,104.37-304.26,248.17l-68.36,333.16a296.74,296.74,0,0,0,255.66,354.32Z"/><path class="cls-5" d="M1997.69,1470.6c-1,3.79-2,7.64-3,11.38-.81,2.88-1.63,5.7-2.44,8.52-.32,1.08-.59,2.11-1,3.2-.66,2.33-1.41,4.66-2.12,6.94-.92,3-1.9,5.91-2.87,8.84-.44,1.3-.87,2.6-1.3,3.85-1.41,4.23-2.88,8.4-4.45,12.52-1.63,4.56-3.36,9.06-5.15,13.5s-3.58,9-5.48,13.4-3.8,8.84-5.8,13.18-3.85,8.4-5.86,12.58l-.81,1.62c-1.85,3.91-3.8,7.76-5.8,11.61l-.17.32c-2.17,4.29-4.39,8.46-6.67,12.69-2.71,5-5.47,9.92-8.35,14.8-2,3.42-4,6.78-6,10.15a.44.44,0,0,0-.16.27c-2.5,4.12-5,8.18-7.65,12.25-4.34,6.78-8.78,13.5-13.39,20.17-2,2.93-4.07,5.81-6.13,8.68-1.74,2.44-3.47,4.83-5.26,7.27-2.66,3.63-5.37,7.21-8.08,10.79s-5.32,6.83-8,10.25c-1.52,1.89-3,3.79-4.55,5.64l-2.93,3.57c-1.84,2.17-3.63,4.34-5.48,6.51q-7.49,8.79-15.29,17.41c-2.49,2.82-5.1,5.58-7.7,8.35-1.9,2-3.8,4.07-5.69,6.07-2.71,2.82-5.37,5.59-8.14,8.3-3.9,4-7.91,7.92-11.93,11.82-3.25,3.14-6.5,6.24-9.81,9.27a16.56,16.56,0,0,1-1.47,1.36c-3.36,3.2-6.77,6.29-10.25,9.38-6.34,5.69-12.79,11.22-19.35,16.7l-4.94,4.12q-5,4.06-10.09,8.14-17.73,14.07-36.27,27.16c-.22.17-.49.33-.71.49a543.41,543.41,0,0,1-155.08,75.7,548.51,548.51,0,0,1-475.84-76.19c-3.9-2.76-7.8-5.58-11.71-8.4a9.31,9.31,0,0,0-1.19-.87c-3.85-2.87-7.7-5.75-11.5-8.62q-5.94-4.56-11.87-9.27h-.06c-3.9-3.15-7.75-6.29-11.6-9.44s-7.7-6.45-11.5-9.7-7.53-6.51-11.22-9.82-7.43-6.67-11.06-10.09-7.22-6.77-10.79-10.24-7.11-6.89-10.58-10.42-6.94-7-10.36-10.62-6.83-7.27-10.24-11c-3.26-3.58-6.46-7.15-9.66-10.84-2.49-2.82-5-5.7-7.43-8.57q-10.65-12.6-20.76-25.7c-2.72-3.58-5.48-7.16-8.08-10.79-.38-.44-.71-.93-1-1.36-1.85-2.44-3.64-4.93-5.37-7.43-4-5.64-7.92-11.28-11.72-17-2.11-3.14-4.23-6.34-6.23-9.54-3.09-4.83-6.13-9.65-9.11-14.59-2.06-3.47-4.18-7-6.24-10.52-2.82-4.93-5.58-10-8.35-15-2-3.79-4-7.59-6-11.38s-4-7.76-5.81-11.66a13,13,0,0,1-.81-1.63q-6.18-12.62-11.55-25.49a4.7,4.7,0,0,1-.49-1.08c-1.79-4.23-3.52-8.46-5.2-12.74-1.79-4.45-3.53-8.95-5.16-13.51s-3.3-9-4.82-13.61c-1.14-3.36-2.28-6.78-3.36-10.19-.87-2.71-1.68-5.43-2.5-8.14-.38-1.19-.76-2.44-1.08-3.63-.82-2.66-1.57-5.26-2.28-7.92-1.08-3.9-2.11-7.81-3.14-11.76-40.57-286.32,219.77-603.84,479.89-740a228.14,228.14,0,0,1,211.49,0c5.85,3,11.65,6.29,17.51,9.65l0,.06C1789.52,886.39,2037.33,1190.74,1997.69,1470.6Z"/><g class="cls-8"><path class="cls-4" d="M1512.1,1933c7.37-1.91,14.72-3.94,22-6.16a543.59,543.59,0,0,0,155.09-75.7c.21-.16.49-.32.7-.49q18.55-13.08,36.28-27.16,5.13-4.07,10.09-8.14l4.93-4.12c6.56-5.47,13-11,19.36-16.7,3.47-3.09,6.89-6.18,10.25-9.38a19.78,19.78,0,0,0,1.46-1.35c3.31-3,6.56-6.13,9.82-9.28,4-3.9,8-7.86,11.92-11.82,2.77-2.71,5.43-5.48,8.14-8.3,1.9-2,3.8-4.06,5.69-6.07,2.6-2.77,5.21-5.53,7.7-8.35q7.82-8.62,15.29-17.41c1.85-2.16,3.64-4.34,5.48-6.5l2.93-3.58c1.52-1.85,3-3.74,4.55-5.64,2.72-3.42,5.37-6.78,8-10.25s5.42-7.16,8.08-10.79c1.79-2.44,3.52-4.83,5.26-7.27,2.06-2.87,4.12-5.75,6.13-8.67,4.61-6.67,9-13.4,13.39-20.18,2.6-4.06,5.15-8.13,7.64-12.25a.53.53,0,0,1,.17-.27c2-3.36,4-6.73,6-10.14,2.88-4.88,5.64-9.82,8.36-14.81,2.27-4.23,4.49-8.4,6.66-12.68l.17-.33c2-3.85,3.95-7.7,5.8-11.6l.81-1.63c2-4.18,4-8.35,5.86-12.58s4-8.79,5.8-13.18,3.74-8.89,5.48-13.39,3.52-9,5.15-13.5c1.57-4.13,3-8.3,4.45-12.53.43-1.25.86-2.55,1.3-3.85,1-2.93,2-5.86,2.87-8.84.71-2.28,1.47-4.61,2.12-6.94.38-1.09.65-2.12,1-3.2.82-2.82,1.63-5.64,2.44-8.51,1-3.75,2.06-7.6,3-11.39,39.15-276.43-202.14-576.75-453-724.85,176.46,160.5,310,385.39,280.12,596.39-1,3.79-2,7.64-3,11.38-.81,2.88-1.63,5.7-2.44,8.52-.33,1.08-.6,2.11-1,3.2-.66,2.33-1.42,4.66-2.12,6.94-.92,3-1.9,5.91-2.87,8.84-.44,1.3-.87,2.6-1.3,3.85-1.42,4.23-2.88,8.4-4.45,12.52-1.63,4.56-3.36,9.06-5.15,13.51s-3.58,8.94-5.48,13.39-3.8,8.84-5.8,13.18-3.85,8.4-5.86,12.58l-.81,1.62c-1.85,3.91-3.8,7.76-5.8,11.61-.06.1-.11.22-.17.32-2.17,4.29-4.39,8.46-6.67,12.69-2.71,5-5.47,9.93-8.35,14.81-1.95,3.41-4,6.77-6,10.14a.5.5,0,0,0-.17.27c-2.49,4.12-5,8.18-7.64,12.25-4.34,6.78-8.78,13.51-13.39,20.17-2,2.93-4.07,5.81-6.13,8.68-1.74,2.44-3.47,4.83-5.26,7.27-2.66,3.63-5.37,7.21-8.08,10.79s-5.32,6.83-8,10.25c-1.52,1.9-3,3.79-4.55,5.64l-2.93,3.58c-1.84,2.17-3.63,4.33-5.48,6.51q-7.49,8.78-15.29,17.4c-2.5,2.82-5.1,5.59-7.7,8.35-1.9,2-3.79,4.07-5.69,6.07-2.71,2.82-5.37,5.59-8.14,8.3-3.9,4-7.91,7.92-11.93,11.82-3.25,3.15-6.5,6.24-9.81,9.28a18,18,0,0,1-1.47,1.35c-3.36,3.2-6.77,6.29-10.24,9.38-6.35,5.7-12.8,11.23-19.36,16.7-1.63,1.36-3.26,2.71-4.94,4.13q-5,4.07-10.09,8.13-17.73,14.07-36.27,27.17c-.22.16-.49.32-.71.49a543.64,543.64,0,0,1-155.08,75.69,546.9,546.9,0,0,1-154.42,23.79,548.55,548.55,0,0,0,97.1-9.63c.92-.18,1.84-.39,2.77-.57q-17.55,4.56-35.3,8a550.18,550.18,0,0,1-214.17-1.81l-2.46-1.92q5.82,4.62,11.65,9.09c3.8,2.88,7.65,5.75,11.5,8.63a10.31,10.31,0,0,1,1.19.86c3.9,2.82,7.81,5.64,11.71,8.41a548.46,548.46,0,0,0,418.52,90.34q15.14-2.9,30.12-6.64Q1525.85,1930.27,1512.1,1933Z"/></g><g class="cls-6"><path class="cls-7" d="M1628.36,804.36c-20-13.56-40.24-26.19-60.47-37.85l-.05-.06c-5.86-3.36-11.66-6.61-17.51-9.65a228.14,228.14,0,0,0-211.49,0C1078.72,893,818.38,1210.51,859,1496.82c1,4,2.06,7.87,3.14,11.77.71,2.66,1.47,5.26,2.28,7.92.32,1.19.7,2.44,1.08,3.63.82,2.71,1.63,5.42,2.5,8.13,1.08,3.42,2.22,6.84,3.36,10.2,1.52,4.55,3.14,9.11,4.83,13.61s3.36,9.06,5.15,13.5,3.41,8.52,5.2,12.75a4.7,4.7,0,0,0,.49,1.08q5.37,12.85,11.55,25.49a12.24,12.24,0,0,0,.81,1.62c1.85,3.91,3.8,7.81,5.81,11.66s4,7.59,6,11.39c2.77,5,5.53,10.09,8.35,15,2.06,3.52,4.18,7.05,6.24,10.52,3,4.93,6,9.76,9.11,14.59,2,3.2,4.12,6.4,6.23,9.54,3.8,5.75,7.7,11.39,11.72,17,1.73,2.49,3.52,5,5.36,7.43.33.43.66.92,1,1.35,2.61,3.64,5.37,7.22,8.08,10.79q10.1,13.1,20.77,25.71c2.44,2.87,4.94,5.75,7.43,8.57,3.2,3.68,6.4,7.26,9.65,10.84,3.42,3.69,6.84,7.32,10.25,11s6.89,7.11,10.36,10.63,7,7,10.57,10.41,7.16,6.89,10.8,10.25,7.32,6.73,11.06,10.09,7.43,6.56,11.22,9.81,7.59,6.51,11.5,9.71,7.7,6.29,11.6,9.43h.06q5.93,4.73,11.87,9.28c3.53,2.65,7.11,5.31,10.68,8-4.5-2.93-8.94-6-13.39-9.11-3.91-2.76-7.81-5.58-11.71-8.4a8.75,8.75,0,0,0-1.2-.87c-3.85-2.88-7.7-5.75-11.49-8.62q-5.94-4.56-11.88-9.28h-.05c-3.91-3.14-7.76-6.29-11.61-9.43s-7.7-6.45-11.49-9.71-7.54-6.51-11.23-9.81-7.43-6.67-11.06-10.09-7.21-6.78-10.79-10.25-7.1-6.89-10.57-10.41-6.94-7-10.36-10.63-6.83-7.26-10.25-11c-3.25-3.58-6.45-7.16-9.65-10.84-2.5-2.83-5-5.7-7.43-8.57q-10.65-12.61-20.77-25.71c-2.71-3.58-5.48-7.15-8.08-10.79-.38-.43-.7-.92-1-1.35-1.84-2.44-3.63-4.94-5.37-7.43-4-5.64-7.91-11.28-11.71-17-2.12-3.14-4.23-6.34-6.24-9.54-3.09-4.83-6.12-9.66-9.11-14.59-2.06-3.47-4.17-7-6.23-10.52-2.82-4.93-5.59-10-8.35-15-2-3.8-4-7.59-6-11.39s-4-7.75-5.8-11.66a10.2,10.2,0,0,1-.81-1.62q-6.2-12.62-11.55-25.49a4.7,4.7,0,0,1-.49-1.08c-1.79-4.23-3.53-8.46-5.21-12.75s-3.52-8.94-5.15-13.5-3.31-9.06-4.83-13.61c-1.13-3.36-2.27-6.78-3.36-10.19-.86-2.72-1.68-5.43-2.49-8.14-.38-1.19-.76-2.44-1.09-3.63-.81-2.66-1.57-5.26-2.27-7.92-1.09-3.9-2.12-7.81-3.15-11.77-40.56-286.31,219.78-603.86,479.9-740a228.12,228.12,0,0,1,211.48,0c5.86,3,11.66,6.29,17.52,9.65l0,.06A989,989,0,0,1,1628.36,804.36Z"/></g><path class="cls-4" d="M1412.05,1959.37a563.54,563.54,0,0,1-325.19-102.89c-4-2.81-7.92-5.67-11.87-8.52l-.6-.45-.8-.56c-4.09-3.06-7.86-5.88-11.58-8.69s-7.62-5.9-11.39-8.89c-.31-.21-.62-.44-.91-.68-3.82-3.07-7.58-6.14-11.34-9.22-4.38-3.58-8.27-6.91-12.15-10.24s-7.73-6.68-11.5-10.06l-.54-.48c-3.65-3.29-7.25-6.53-10.81-9.87s-7.3-6.86-11-10.42-7.25-7-10.84-10.67-7.13-7.25-10.54-10.82c-3.52-3.74-7-7.4-10.4-11.12s-6.73-7.46-10-11.24c-2.46-2.79-5-5.75-7.55-8.72-7.44-8.8-14.59-17.64-21.25-26.29l-1.79-2.36c-2.12-2.8-4.25-5.59-6.29-8.43-.37-.47-.73-.94-1.07-1.41-2-2.67-3.92-5.33-5.78-8-4.36-6.12-8.29-11.84-11.94-17.36-2.13-3.18-4.35-6.52-6.44-9.86-3.09-4.83-6.2-9.78-9.25-14.83l-1.92-3.22c-1.48-2.48-3-5-4.44-7.5-2.8-4.9-5.47-9.76-8.14-14.62l-.43-.78c-2.16-4.08-4.19-7.93-6.17-11.78s-3.92-7.67-5.77-11.58a26.63,26.63,0,0,1-1.21-2.46c-4.38-9.06-8.13-17.32-11.44-25.2a21.11,21.11,0,0,1-1-2.26c-1.76-4.18-3.48-8.37-5.14-12.6-1.81-4.51-3.63-9.21-5.33-14-1.66-4.46-3.35-9.2-4.93-13.94-1.15-3.39-2.32-6.9-3.44-10.41-.88-2.78-1.72-5.58-2.57-8.38-.37-1.17-.81-2.62-1.19-4-.74-2.41-1.56-5.2-2.31-8.06-1.06-3.79-2.11-7.78-3.16-11.82a16.3,16.3,0,0,1-.37-1.82C785.74,1299.5,867.42,1139,940.28,1035c92.06-131.52,222.72-247.71,358.48-318.77a244.23,244.23,0,0,1,226.57,0c135.77,71.06,266.43,187.25,358.49,318.77,72.85,104.08,154.54,264.54,130,437.92a17.33,17.33,0,0,1-.36,1.77c-1,3.88-2,7.82-3.1,11.65l-2.79,9.71c-.25.84-.49,1.67-.77,2.52-.49,1.71-1,3.42-1.56,5.11l-.56,1.79c-.89,2.89-1.82,5.71-2.76,8.53l-.21.64c-.47,1.4-.93,2.77-1.38,4.08-1.42,4.24-3,8.64-4.61,13s-3.39,9.14-5.27,13.79c-1.71,4.44-3.63,9.06-5.59,13.68s-3.92,9.12-6,13.63c-1.87,4.19-3.89,8.49-6,12.8l-.94,1.88c-1.75,3.74-3.8,7.78-5.91,11.83-2.3,4.55-4.59,8.85-6.93,13.2-2.83,5.21-5.69,10.3-8.65,15.34-1.91,3.33-4,6.78-6,10.23l-.07.11-.15.25c-2.56,4.24-5.18,8.42-7.86,12.6-4.77,7.45-9.26,14.21-13.71,20.65-2,3-4.16,5.94-6.29,8.91-1.75,2.45-3.52,4.89-5.35,7.39-2.72,3.71-5.48,7.36-8.24,11s-5.48,7-8.26,10.54c-1.6,2-3.17,4-4.74,5.87l-8.56,10.28c-5.11,6-10.36,12-15.63,17.79-2.4,2.71-5,5.53-7.69,8.34l-6,6.35c-3,3.09-5.7,5.94-8.55,8.73-3.79,3.84-7.88,7.88-12,11.86-3.32,3.2-6.59,6.32-9.93,9.38-.62.61-1.25,1.2-1.87,1.74-3.37,3.19-6.78,6.28-10.26,9.38-6.74,6-13.38,11.72-19.75,17l-4.89,4.1c-3.52,2.88-7,5.65-10.43,8.41-12,9.51-24.44,18.84-37,27.72l-.6.41-.13.1A563.62,563.62,0,0,1,1412.05,1959.37Zm-317.59-137.48c3.72,2.69,7.45,5.38,11.18,8,183,129.09,429,129.28,612.16.45h0l.69-.48c12.07-8.53,24-17.48,35.54-26.62q5-4,9.88-8l4.82-4c6.11-5.1,12.49-10.61,19-16.37,3.33-3,6.62-5.93,9.85-9q.42-.4.87-.78l.31-.3c.16-.16.33-.33.5-.48,3.21-2.95,6.36-5.94,9.51-9,3.89-3.79,7.83-7.67,11.65-11.55,2.81-2.76,5.33-5.38,7.89-8l5.69-6.08c2.62-2.77,5-5.34,7.34-8q7.79-8.6,15.1-17.19l8.17-9.8c1.53-1.86,3-3.7,4.47-5.53,2.62-3.3,5.22-6.59,7.82-10s5.26-7,7.87-10.52c1.74-2.37,3.44-4.7,5.13-7.09,2-2.82,4-5.6,6-8.43,4.27-6.19,8.55-12.63,13.11-19.75,2.53-4,5-7.9,7.42-11.9l.12-.19h0c2-3.28,3.91-6.55,5.82-9.88,2.87-4.9,5.55-9.67,8.17-14.49,2.18-4.06,4.35-8.11,6.45-12.27l.25-.5c1.91-3.66,3.76-7.32,5.52-11l1-2c1.8-3.77,3.7-7.81,5.53-11.9q3-6.52,5.66-12.83c1.85-4.35,3.62-8.62,5.29-12.94,1.8-4.48,3.45-8.78,5-13.13s3-8.19,4.34-12.2l1.5-4.47c.87-2.61,1.74-5.22,2.56-7.88l.6-1.93c.48-1.51,1-3,1.39-4.57.09-.35.2-.69.32-1s.28-.89.41-1.34l2.71-9.42c.89-3.25,1.82-6.7,2.7-10.12,17.68-126.88-26.53-273.79-124.54-413.8C1768,926.23,1641.55,813.74,1510.25,745a211.65,211.65,0,0,0-196.39,0c-131.31,68.73-257.76,181.21-346.93,308.61-98,140-142.2,286.91-124.54,413.78.93,3.57,1.86,7.09,2.84,10.61.7,2.65,1.41,5.06,2.16,7.52.4,1.45.73,2.49,1,3.49.85,2.84,1.64,5.46,2.48,8.09,1.06,3.33,2.17,6.65,3.28,9.91,1.47,4.45,3,8.82,4.65,13.14,1.63,4.57,3.29,8.88,5,13.13s3.37,8.38,5.1,12.47a2.18,2.18,0,0,1,.09.23c.16.31.3.62.42.92,3.2,7.66,6.86,15.73,11.19,24.67.1.22.21.43.3.65s.4.73.58,1.11c1.75,3.71,3.61,7.43,5.52,11.09,2,3.83,3.94,7.57,5.92,11.31l.3.56c2.59,4.7,5.16,9.39,7.79,14,1.34,2.29,2.78,4.72,4.22,7.12l1.88,3.16c2.85,4.71,5.81,9.42,8.82,14.13,2,3.18,4,6.23,6,9.23,3.5,5.31,7.23,10.73,11.46,16.67,1.72,2.46,3.38,4.78,5.1,7.05l.48.66-.22-.24c.36.41.7.84,1,1.28,2,2.74,4,5.44,6.07,8.13l1.75,2.31c6.28,8.15,13.11,16.61,20.22,25,2.36,2.78,4.77,5.56,7.19,8.3,3.22,3.71,6.34,7.2,9.51,10.68s6.67,7.15,10.06,10.75c3.2,3.36,6.54,6.75,9.88,10.14,3.57,3.63,7,7,10.43,10.28,3.59,3.47,7.07,6.8,10.61,10.07s6.89,6.34,10.37,9.46l.52.47c3.59,3.22,7.24,6.39,10.94,9.57s7.41,6.35,11.22,9.47,7.23,5.91,10.72,8.73c.25.17.5.36.74.55q5.84,4.62,11.66,9.1c3.54,2.68,7.21,5.43,10.88,8.17A20.62,20.62,0,0,1,1094.46,1821.89ZM1074,1847.16h0Zm724.83-82.34-.12.1ZM869.6,1547.66v0Zm-1-2.47h0Zm1129.08-74.59h0Z"/><path class="cls-9" d="M1867.74,1552.77c-1,3-2.09,6.14-3.22,9.31-30.15,77.23-89.28,118.39-125.09,71.79L1760.8,1529l14.53-71.31C1831.19,1419.51,1905.68,1436.65,1867.74,1552.77Z"/><path class="cls-4" d="M1775.25,1655.47c-14.21,0-27-7-37.36-20.41l-.53-.71,36.22-177.84.65-.45c30.5-20.83,64.83-24.44,85.41-9,13.4,10.06,32.51,37.24,9.94,106.32h0c-1,3.06-2.1,6.16-3.23,9.36-20.15,51.61-53.39,87.81-84.68,92.27A45.34,45.34,0,0,1,1775.25,1655.47Zm-33.74-22.08c10.88,13.77,24.53,19.92,39.61,17.78,29.93-4.26,62-39.51,81.59-89.79,1.11-3.11,2.2-6.18,3.19-9.21h0c16.17-49.49,13.12-85.72-8.59-102-19.11-14.34-51.28-10.84-80.24,8.66Z"/><g class="cls-3"><path class="cls-4" d="M1867.74,1552.77c-1,3-2.09,6.14-3.22,9.31-30.15,77.23-89.28,118.39-125.09,71.79L1760.8,1529c5-.39,8-.6,8-.6q32.57,101.87,94.63,18.1Z"/></g><path class="cls-4" d="M1775.33,1666.57c-17.64,0-33.83-8.59-46.24-24.74a13,13,0,0,1-2.44-10.56l35.89-176.21a13,13,0,0,1,5.42-8.18c34.85-23.79,74.65-27.09,99-8.19,16.35,12.68,39.37,46.14,9.81,127.83-22,56.38-57.81,94.38-93.55,99.48A56.16,56.16,0,0,1,1775.33,1666.57Zm-21.84-36.31c7.68,8,16.27,11.29,26.07,9.9,25.63-3.66,54.89-36.94,72.8-82.82,17.37-48,16.92-83.85-1.36-98-14.3-11.08-40.08-8.37-64,6.31Z"/><path class="cls-9" d="M956.47,1552.77c1,3,2.08,6.14,3.22,9.31,30.15,77.23,89.28,118.39,125.08,71.79L1063.41,1529l-14.53-71.31C993,1419.51,918.53,1436.65,956.47,1552.77Z"/><path class="cls-4" d="M1049,1656.25a45.6,45.6,0,0,1-6.54-.48c-31.57-4.49-65-40.88-85.27-92.7-1.17-3.27-2.26-6.38-3.27-9.45h0c-22.72-69.53-3.35-97,10.22-107.17,20.84-15.64,55.52-12,86.3,9l.9.62,36.37,178.5-.76,1C1076.44,1649.17,1063.42,1656.25,1049,1656.25ZM959,1551.93c1,3,2.08,6.09,3.2,9.24,19.5,49.95,51.29,85,81,89.24,14.89,2.11,27.88-3.68,38.68-17.22l-35.43-173.9c-28.62-19.17-60.3-22.61-79.08-8.51-21.42,16.07-24.38,52-8.32,101.15Z"/><g class="cls-6"><path class="cls-7" d="M1036.53,1652.25c-27.63-9.22-56.13-42.55-74.23-88.89-1.13-3.17-2.22-6.26-3.22-9.31-37.94-116.12,36.55-133.27,92.41-95.11l.27,1.31c-50.52-19.1-101.47,7.4-68.75,107.6,1,3,2.09,6.13,3.22,9.31C999.07,1610.09,1017.21,1636.46,1036.53,1652.25Z"/></g><path class="cls-4" d="M1048.88,1666.57a56.16,56.16,0,0,1-7.92-.57c-35.74-5.09-71.54-43.1-93.43-99.17-29.68-82-6.66-115.46,9.69-128.14,24.38-18.9,64.17-15.6,99,8.19a13,13,0,0,1,5.42,8.18l35.9,176.21a13,13,0,0,1-2.44,10.56C1082.71,1658,1066.51,1666.57,1048.88,1666.57Zm-53-214c-8.88,0-16.74,2.23-22.65,6.8-18.28,14.17-18.73,50-1.25,98.32,17.8,45.58,47,78.86,72.68,82.52,9.82,1.39,18.39-1.85,26.08-9.9l-33.54-164.63C1023.15,1457,1008.48,1452.52,995.86,1452.52Z"/><path class="cls-9" d="M1767.45,1531.63v60.3c0,103.73-49.64,202.1-135.14,260.84-1.22.82-2.43,1.61-3.61,2.43a387.92,387.92,0,0,1-431.52,0c-1.18-.83-2.39-1.66-3.61-2.48-85.54-58.7-135.19-157.07-135.19-260.84v-60.3s.22-3.87.66-10.84c3.22-55,17.79-302,20.14-308.3C1156.8,1003.56,1932.83,1054.77,1767.45,1531.63Z"/><path class="cls-4" d="M1412.9,1923.81a389.69,389.69,0,0,1-217.23-66.31c-1.1-.77-2.18-1.51-3.27-2.25-85.75-58.83-136.73-157.18-136.73-263.32v-60.3c0-.16.23-4,.66-11,5.31-90.79,17.91-302.65,20.32-309.09,20.37-54.84,89.44-95.47,189.49-111.48,96.58-15.45,209.09-5,300.94,28s295,138.21,203.08,404v59.85c0,106.09-51,204.43-136.31,263.07l-1.41.94c-.74.49-1.47,1-2.18,1.48A389.82,389.82,0,0,1,1412.9,1923.81Zm-55.21-825.33a576.34,576.34,0,0,0-90.69,6.94c-98.07,15.68-165.6,55-185.27,108-1.88,7-11.94,170-20,307.52-.43,7-.65,10.83-.65,10.83v60.15c0,104.35,50.09,201,134,258.6,1.46,1,2.57,1.75,3.64,2.5,130.11,87.17,298.31,87.15,428.45-.08.71-.49,1.47-1,2.25-1.52l1.35-.91c83.88-57.62,134-154.29,134-258.59l.15-61.19c90.71-261.55-109.39-365.16-199.63-397.57C1501.91,1110.42,1428.65,1098.48,1357.69,1098.48Z"/><g class="cls-3"><path class="cls-4" d="M1767.45,1531.63v60.3c0,103.73-49.64,202.1-135.14,260.84-1.22.82-2.43,1.61-3.61,2.43a387.92,387.92,0,0,1-431.52,0c-1.18-.83-2.39-1.66-3.61-2.48-2.7-1.87-5.4-3.79-8-5.74a387.86,387.86,0,0,0,385.19-26.63c1.17-.83,2.39-1.61,3.61-2.44,85.49-58.74,135.14-157.11,135.14-260.84l5.15-76c56.13-161.81-1.33-258.87-97.92-329.1C1748.13,1216.8,1834,1339.75,1767.45,1531.63Z"/></g><g class="cls-3"><path class="cls-4" d="M1767.45,1531.63v24.49c-39-57.43-46.51-214.15-46.51-214.15-34.08,37-225.5,79.69-359.84,8.33a8.46,8.46,0,0,0-11.56,11.2c1.64,3.31,2.3,4.43,2.3,4.43-17.67,10.94-100.9.28-146-26-12.56-7.31-28.57.6-30.82,15-10.11,64.55-42.25,109.48-111,176.73-1.69-3.61-3.35-7.22-4.91-10.83,3.22-55,17.79-302,20.14-308.31C1156.8,1003.56,1932.83,1054.77,1767.45,1531.63Z"/></g><g class="cls-6"><path class="cls-7" d="M1560,1891.8a388,388,0,0,1-362.86-36.55c-1.18-.83-2.39-1.66-3.61-2.48-85.54-58.7-135.19-157.07-135.19-260.84v-60.3s18.15-312.05,20.8-319.14c16.32-43.9,63.44-76.32,126.22-95.72-47.21,19.71-81.88,48.21-95.41,84.58-2.66,7.14-20.8,319.14-20.8,319.14v60.3c0,103.77,49.64,202.15,135.18,260.89a26.11,26.11,0,0,1,3.66,2.43C1312.69,1920.77,1449.71,1926.47,1560,1891.8Z"/></g><path class="cls-4" d="M1412.92,1934.18a399.94,399.94,0,0,1-223-68.09l-3.75-2.54c-88.2-60.52-140.86-162.06-140.86-271.62v-60.3c0-.26,0-.51,0-.76,18.25-313.76,20.77-320.72,21.6-322.94h0c47.77-128.53,316.87-156.67,503.67-89.58,89,32,156.36,82.65,194.85,146.58,45.28,75.23,50.34,165.69,15,268.88v58.12c0,109.53-52.64,211.06-140.82,271.59L1636,1866A400.06,400.06,0,0,1,1412.92,1934.18ZM1071.44,1532v59.92c0,101,48.42,194.44,129.52,250.1l3.5,2.36c126.66,84.89,290.33,84.88,417,0l3.48-2.36c81.09-55.67,129.5-149.16,129.5-250.08v-60.3a13,13,0,0,1,.72-4.28c87.69-252.8-106-353.06-193.33-384.43-189.3-68-430.19-30.34-470,73.16C1089.36,1232.94,1078.36,1413,1071.44,1532Zm20-315Zm.09-.26a2.41,2.41,0,0,0-.08.25Zm-12.33-4.29h0Z"/><path class="cls-10" d="M1763.36,1084.57c97.9,125.09,85.72,342.77,3.27,456.85-63.09-34.81-67.27-199.45-67.27-199.45-149.32,40.64-300.43,15.84-437.44-102.2-2.91,46.38,35.94,89.41,35.94,89.41a183.63,183.63,0,0,1-47.6-7.35c-49.56-14.84-79.06-50.73-97.11-95.85-17.41,156.63-18.49,191.44-94.76,305.65-76.15-163.16-90.16-364.39,36.76-424.56-177-60.92-111.69-184.22,40.59-74.71C1061,925,1155.32,883.65,1174.9,1001.9c110.12-201.14,593.9-130.52,659.47,97.9l-70.83-15.18A.6.6,0,0,0,1763.36,1084.57Z"/><path class="cls-4" d="M1767.42,1545l-2.1-1.16c-59.37-32.75-67.57-173.73-68.55-198.31-158.62,42.16-304,8.54-432.29-100,.42,42.55,35,81.44,35.39,81.84l4.26,4.71-6.35-.18a187.51,187.51,0,0,1-48.3-7.46c-42.86-12.84-74-41.62-94.77-87.86l-1,8.59c-15.48,140.26-19.64,177.95-93.11,288l-2.68,4-2-4.37c-76.69-164.33-89.44-361.41,32.3-425.28-71.48-26-99.58-60.89-101.91-85.39-1.21-12.79,4.28-23.38,15.47-29.8,21-12,64.12-9.89,124.1,30-25.13-41.12-24.42-70.88-15.34-84.52,5.31-8,13.65-11.45,22.77-9.47,15.28,3.28,34.13,22.38,42.91,65.88,60.57-100.62,206.66-122.87,325-109.71,141,15.66,299.46,88.1,335.78,214.62l1.24,4.35L1770,1088.77c95,128.48,78.49,344.06-1.14,454.24ZM1702,1338.45l.09,3.45c0,1.61,4.75,159.79,63.78,195.93,78.49-110.91,93.29-326.48-4.62-451.59l-3.43-4.38,6.62.19,66,14.14c-38-121.41-192.33-191.09-329.86-206.37-119-13.24-266.49,9.6-323.32,113.39l-3.77,6.88-1.28-7.74c-7.63-46.07-26.34-65.85-40-68.79-7-1.49-13,1.05-17.13,7.18-9,13.48-8.35,45.16,22.91,90.07l9,13-12.85-9.24c-63.93-46-109.82-49-129.67-37.56-9.24,5.31-13.77,14-12.77,24.59,2.13,22.42,30.73,57.58,104.31,82.91l6.29,2.17-6,2.85c-123.56,58.58-112.41,253-37.5,416.57,70.16-105.83,74.38-144,89.55-281.52l3.29-29.64,4,10c20.1,50.23,51.3,81.07,95.36,94.26a178.3,178.3,0,0,0,40.81,7c-10-12.61-35-48.15-32.63-86.6l.35-5.44,4.13,3.56c128.77,110.94,275.1,145.15,435,101.64Z"/><g class="cls-3"><path class="cls-4" d="M1135,1198.71a184.3,184.3,0,0,1,16.32,43.36c-15.79,143.11-19.4,179.35-93,289.56-8.62-18.49-16.45-37.42-23.33-56.61,60.42-93.71,67.48-146.64,81.44-272.9C1117.57,1192.42,1130.54,1190,1135,1198.71Z"/></g><g class="cls-6"><path class="cls-7" d="M1107,1013.78c-95.8-40.59-130.48,29.59-37.15,83.45C935.12,1038.5,983.16,942.86,1107,1013.78Z"/></g><g class="cls-6"><path class="cls-7" d="M1092.1,1108.59l.27.12c12.06,5.33,14.61,21.16,4.46,29.58-86.68,71.87-83.39,233.59-26.17,374.59-3.83,6-7.92,12.27-12.27,18.75C982.85,1369.77,968.45,1170.5,1092.1,1108.59Z"/></g><g class="cls-6"><path class="cls-7" d="M1129.78,1030.62l-.29-.16c-50.56-77.84-4.56-122.66,26.16-86.77-17,2.5-27,28.74-8.2,70.26C1152.45,1025,1140.4,1036.42,1129.78,1030.62Z"/></g><g class="cls-6"><path class="cls-7" d="M1738.35,982.32c-83.37-38.46-195-64.17-296.34-64.65-15.62,30-68.27,28.5-90.42,7.18-57,10.22-105.25,31.8-135.35,67.79-8.62,10.31-25.46,9.61-32.24-2a12.27,12.27,0,0,1-1-2C1277.37,868.24,1595.85,858.32,1738.35,982.32Z"/></g><path class="cls-4" d="M1766.62,1554.47a13.11,13.11,0,0,1-6.3-1.62c-57.56-31.76-70.42-149-73.26-194.24-148.6,36-285.58,6.49-407.91-87.93,8.84,27.68,28.15,49.48,28.41,49.77a13.06,13.06,0,0,1-9.7,21.78h-.4c-59.93-1.84-105.54-26-136.07-72.07-13.79,123.1-21.64,163.14-92.15,268.73a13.06,13.06,0,0,1-22.68-1.73c-74.83-160.34-89.26-351.57,18.64-427.69-61.71-26.81-86.78-61.24-89.17-86.38-1.6-16.82,5.91-31.31,20.62-39.75,19.75-11.35,56.05-12.18,104.77,12.59-10.75-29.23-7.93-51.22.52-63.92,7.68-11.54,20.25-16.72,33.56-13.86,19.17,4.12,35.08,22.8,44.92,51.68,69-88.63,208.11-108.31,321.92-95.67,144.4,16,306.94,90.93,344.57,222.05a13,13,0,0,1-15.28,16.36l-38.83-8.33c35.33,58,53.94,132.28,52.88,213.06-1.18,88.71-26.13,173.19-68.47,231.77A13,13,0,0,1,1766.62,1554.47Zm-67.26-225.55a13.06,13.06,0,0,1,13.05,12.72c1,40.56,12.38,145.94,51,181.39,71.12-110.19,82.36-312-10.29-430.41a13.05,13.05,0,0,1,13-20.81l48.18,10.33c-45.24-106.41-187.34-167.87-314.82-182-145.43-16.16-268.32,26.26-313.11,108.07A13,13,0,0,1,1162,1004c-7.27-43.88-24.12-58.67-32-60.37-1.94-.41-4.21-.42-6.35,2.8-5.37,8.08-7.53,34.87,22.79,78.44a13.05,13.05,0,0,1-18.34,18c-56.09-40.34-99.93-47.64-118.48-37-5.75,3.31-8.25,8.09-7.62,14.64,2,20.89,32.86,51.91,97.38,74.12a13,13,0,0,1,1.34,24.13c-68.26,32.37-85,106.15-87.07,162.34-2.42,66.62,14.56,146.86,46.91,223.26,58.82-91.69,63-129.46,77.51-261l2.09-18.91a13.05,13.05,0,0,1,25.09-3.4c21,52.56,55.52,82.9,105,92.09-11.22-18.53-23.22-45.53-21.42-74.27a13.06,13.06,0,0,1,21.55-9.07c126,108.56,269.16,142,425.49,99.5A12.94,12.94,0,0,1,1699.36,1328.92Z"/><path class="cls-4" d="M1699.35,1355a13.06,13.06,0,0,1-3.38-25.66c16.21-4.36,32.6-9.6,48.72-15.56a13.05,13.05,0,0,1,9.06,24.48c-16.86,6.24-34,11.72-51,16.29A13.3,13.3,0,0,1,1699.35,1355Z"/><g class="cls-3"><path class="cls-4" d="M1766.63,1541.42c-63.09-34.81-67.27-199.45-67.27-199.45-149.32,40.64-300.43,15.84-437.44-102.2-2.91,46.38,35.94,89.41,35.94,89.41a183.63,183.63,0,0,1-47.6-7.35c-71.44-117.74-41-145.5,61.7-109.3,285.07,92,492.61,106.38,451.4-128C1861.26,1209.66,1849.08,1427.34,1766.63,1541.42Z"/></g><g class="cls-11"><path class="cls-12" d="M1694.25,1193.35c0,19.78-38.71,35.81-86.46,35.81s-86.47-16-86.47-35.81,38.71-20.28,86.47-20.28S1694.25,1173.58,1694.25,1193.35Z"/></g><path class="cls-4" d="M1458.67,1773s-18.73,12-67.52,12c-10.58.73-40.87-.93-79.15-35.88,0,0,17.68,51,78,51C1390,1800,1424.34,1803.16,1458.67,1773Z"/><path class="cls-4" d="M1181.64,1546.48c4.1-13.32,13.91-24.39,26-31.93a77.19,77.19,0,0,1,41.14-11.23,78.87,78.87,0,0,1,40.82,11.73c12,7.51,21.78,18.28,26.37,31.43-13.13-4.51-24.32-8.12-35.36-10.44a161.38,161.38,0,0,0-32.09-3.68,145,145,0,0,0-32,3.13C1205.6,1537.75,1194.55,1541.44,1181.64,1546.48Z"/><path class="cls-4" d="M1649.44,1546.48c-12.92-5-24-8.73-34.91-11a144.9,144.9,0,0,0-32-3.13,160.64,160.64,0,0,0-32.09,3.68c-11,2.32-22.23,5.93-35.36,10.44,4.59-13.15,14.4-23.92,26.37-31.43a78.84,78.84,0,0,1,40.82-11.73,77.19,77.19,0,0,1,41.14,11.23C1635.53,1522.09,1645.34,1533.16,1649.44,1546.48Z"/><ellipse class="cls-4" cx="1261.92" cy="1625.99" rx="44.87" ry="59.19"/><ellipse class="cls-7" cx="1273.38" cy="1612.26" rx="13.56" ry="19.88"/><path class="cls-4" d="M1273.38,1634.85c-9.12,0-16.27-9.93-16.27-22.59s7.15-22.59,16.27-22.59,16.27,9.92,16.27,22.59S1282.5,1634.85,1273.38,1634.85Zm0-39.76c-5.88,0-10.85,7.86-10.85,17.17s5,17.16,10.85,17.16,10.85-7.86,10.85-17.16S1279.26,1595.09,1273.38,1595.09Z"/><ellipse class="cls-4" cx="1572.17" cy="1625.99" rx="44.87" ry="59.19"/><ellipse class="cls-7" cx="1560.71" cy="1612.26" rx="13.56" ry="19.88"/><path class="cls-4" d="M1560.71,1634.85c-9.12,0-16.27-9.93-16.27-22.59s7.15-22.59,16.27-22.59,16.27,9.92,16.27,22.59S1569.83,1634.85,1560.71,1634.85Zm0-39.76c-5.88,0-10.85,7.86-10.85,17.17s5,17.16,10.85,17.16,10.85-7.86,10.85-17.16S1566.59,1595.09,1560.71,1595.09Z"/><polygon class="cls-13" points="1945.87 2711.35 903.51 2711.37 546.41 1374.24 2299.5 1389.52 1945.87 2711.35"/><path class="cls-14" d="M2068.17,2679.12a147.64,147.64,0,0,1-144.77,118.39H926A147.75,147.75,0,0,1,781.2,2679.12Z"/><path class="cls-4" d="M1923.4,2800.22H926c-71.26,0-133.27-50.7-147.43-120.55l-.66-3.26H2071.49l-.66,3.25a150.37,150.37,0,0,1-147.43,120.56ZM784.55,2681.84c14.89,65.65,73.84,112.95,141.42,112.95H1923.4a144.94,144.94,0,0,0,141.42-112.95Z"/><path class="cls-4" d="M1923.42,2813.77H926c-77.69,0-145.27-55.26-160.7-131.4a16.27,16.27,0,0,1,15.94-19.5h1287a16.27,16.27,0,0,1,16,19.5C2068.69,2758.51,2001.1,2813.77,1923.42,2813.77ZM802.72,2695.41A132,132,0,0,0,926,2781.24h997.44a132,132,0,0,0,123.27-85.83Z"/><g class="cls-3"><path class="cls-4" d="M2068.17,2679.12a147.64,147.64,0,0,1-144.77,118.39H1306.45c101.39-4.8,191.27-32.78,268.62-86.14,0,0,5.33-13,17.13-32.24h476Z"/></g><path class="cls-14" d="M2067.79,2053.68l-52.07,593.68a70.1,70.1,0,0,1-69.86,64H903.51a70.18,70.18,0,0,1-69.86-64l-52-593.68A99.76,99.76,0,0,1,881,1945.19H1968.41a99.7,99.7,0,0,1,99.38,108.49Z"/><path class="cls-4" d="M1945.85,2714.08H903.52A72.5,72.5,0,0,1,831,2647.6l-52-593.68a102.47,102.47,0,0,1,102-111.45H1968.41a102.43,102.43,0,0,1,102.08,111.45h0l-52.07,593.68A72.42,72.42,0,0,1,1945.85,2714.08ZM881,1947.9a97,97,0,0,0-96.63,105.54l52,593.68a67.11,67.11,0,0,0,67.17,61.54H1945.86a67,67,0,0,0,67.16-61.54l52.07-593.68a97,97,0,0,0-96.68-105.54Z"/><g class="cls-15"><path class="cls-7" d="M2051.18,1989.24a98.68,98.68,0,0,0-42-9.26H921.75a99.75,99.75,0,0,0-99.33,108.49l52,593.68a69.54,69.54,0,0,0,7.44,25.77,70.17,70.17,0,0,1-48.22-60.56l-52-593.68A99.76,99.76,0,0,1,881,1945.19H1968.41A99.66,99.66,0,0,1,2051.18,1989.24Z"/></g><path class="cls-4" d="M1945.87,2727.62H903.53a85.93,85.93,0,0,1-86.07-78.85L765.4,2055.08A116,116,0,0,1,881,1928.93H1968.42A116,116,0,0,1,2084,2055.08l-52.06,593.69A85.93,85.93,0,0,1,1945.87,2727.62ZM881,1961.46a83.49,83.49,0,0,0-83.17,90.78l52.06,593.69a53.58,53.58,0,0,0,53.66,49.16H1945.87a53.57,53.57,0,0,0,53.66-49.16l52.06-593.69a83.49,83.49,0,0,0-83.17-90.78Z"/><g class="cls-3"><path class="cls-4" d="M2067.79,2053.68l-52.07,593.68a70.1,70.1,0,0,1-69.86,64H1005.63c578.56-45.54,936.53-279.28,1014.65-751.6l.19,0A99.76,99.76,0,0,1,2067.79,2053.68Z"/></g><g class="cls-3"><path class="cls-7" d="M1044,2443.5l-65.29,6.11a30.8,30.8,0,0,1-33.53-27.79l-22.43-239.68a30.78,30.78,0,0,1,27.79-33.52l65.29-6.12a30.8,30.8,0,0,1,33.53,27.79L1071.75,2410A30.8,30.8,0,0,1,1044,2443.5Z"/></g><path class="cls-16" d="M1514.9,2459.52,1503,2469.1l-1.43,30.26c-.39,8.14-7.66,14.52-16.25,14.29h-.07c-8.58-.23-15.32-7-15.06-15.1l.41-12.8a4.62,4.62,0,0,0-4.62-4.65h0a4.67,4.67,0,0,0-4.88,4.41l-.35,12.8c-.23,8.14-7.35,14.51-15.92,14.28h0c-8.56-.22-15.41-7-15.31-15.08l.13-10.69a6.9,6.9,0,0,0-6.86-6.8h0a6.63,6.63,0,0,0-7,6.45l-.06,10.69c0,8.13-7,14.49-15.55,14.27h0c-8.54-.23-15.51-6.95-15.58-15.07l-.12-12.78a4.82,4.82,0,0,0-4.77-4.64h0a4.41,4.41,0,0,0-4.67,4.4l.17,12.78c.11,8.12-6.71,14.48-15.23,14.26h-.07c-8.51-.22-15.59-6.93-15.82-15l-.86-30.16-11.62-10.09a149.88,149.88,0,0,1-51.25-104.45c-4.6-83.32,60.15-154.81,145-153.47,85.36,1.34,149.76,75.58,143.51,159.5a145.94,145.94,0,0,1-54,102.87Z"/><path class="cls-4" d="M1423,2197.13c.77,0,1.55,0,2.33,0,85.36,1.34,149.76,75.58,143.52,159.5a146,146,0,0,1-54,102.87L1503,2469.1l-1.43,30.26c-.38,8-7.41,14.29-15.81,14.29h-.51c-8.58-.22-15.32-7-15.06-15.1l.41-12.8a4.62,4.62,0,0,0-4.61-4.65h-.13a4.67,4.67,0,0,0-4.76,4.41l-.35,12.8c-.22,8-7.11,14.29-15.48,14.29h-.44c-8.56-.22-15.41-7-15.31-15.08l.14-10.7a6.9,6.9,0,0,0-6.87-6.79h-.19a6.62,6.62,0,0,0-6.79,6.45l-.07,10.69c0,8-6.77,14.27-15.11,14.27h-.44c-8.53-.22-15.51-6.95-15.58-15.07l-.12-12.78a4.82,4.82,0,0,0-4.77-4.64h-.12a4.42,4.42,0,0,0-4.55,4.4l.17,12.78c.11,8-6.48,14.26-14.79,14.26h-.5c-8.52-.23-15.6-6.94-15.83-15.06l-.86-30.16-11.61-10.09a149.87,149.87,0,0,1-51.26-104.45c-4.55-82.55,59-153.49,142.7-153.49m0-26.3h0a166.55,166.55,0,0,0-122.11,52.47,174,174,0,0,0-46.84,128.77,176.55,176.55,0,0,0,60.27,122.85l2.9,2.52.53,18.63c.63,22.16,18.82,40,41.42,40.59h1.19a41.64,41.64,0,0,0,19-4.49,43.1,43.1,0,0,0,20.11,5.53h1.12a41.66,41.66,0,0,0,21.31-5.83,42.17,42.17,0,0,0,22.21,7l1.12,0a42.5,42.5,0,0,0,19.26-4.54,42.26,42.26,0,0,0,20,5.58l1.18,0c22.56,0,41-17.29,42.07-39.37l.87-18.4,2.69-2.16a172.49,172.49,0,0,0,63.75-121.42,176.79,176.79,0,0,0-45.56-131.89,169.78,169.78,0,0,0-123.76-55.86l-2.75,0Z"/><path class="cls-17" d="M1367.92,2316.24c-22.58-.11-40,18.35-38.85,40.93,1.09,22.1,19.67,39.88,41.53,40a38.5,38.5,0,0,0,39-39.53c-.38-22.64-19.06-41.32-41.66-41.44Z"/><path class="cls-17" d="M1480.61,2315.1a41.3,41.3,0,0,0-41.39,41.08,39.92,39.92,0,0,0,39.69,40.18,41.37,41.37,0,0,0,41.46-39.68,39.87,39.87,0,0,0-39.76-41.58Z"/></g></g></svg>